<svg xmlns="http://www.w3.org/2000/svg" xmlns:xlink="http://www.w3.org/1999/xlink" fill="none" version="1.1" width="137" height="112" viewBox="0 0 137 112"><defs><mask id="master_svg0_6_6026" style="mask-type:alpha" maskUnits="objectBoundingBox"><g><rect x="0" y="0" width="137" height="112" rx="0" fill="#FFFFFF" fill-opacity="1"/></g></mask></defs><g mask="url(#master_svg0_6_6026)"><g style="opacity:0.30000001192092896;"><g><path d="M86.4999669845581,132.7086669845581C86.4999669845581,132.7086669845581,51.49996698455811,132.7086669845581,51.49996698455811,132.7086669845581C19.824966984558106,132.7086669845581,6.2916669845581055,119.1746669845581,6.2916669845581055,87.4999669845581C6.2916669845581055,87.4999669845581,6.2916669845581055,52.49996698455811,6.2916669845581055,52.49996698455811C6.2916669845581055,20.824966984558106,19.824966984558106,7.2916669845581055,51.49996698455811,7.2916669845581055C51.49996698455811,7.2916669845581055,86.4999669845581,7.2916669845581055,86.4999669845581,7.2916669845581055C118.1746669845581,7.2916669845581055,131.7086669845581,20.824966984558106,131.7086669845581,52.49996698455811C131.7086669845581,52.49996698455811,131.7086669845581,87.4999669845581,131.7086669845581,87.4999669845581C131.7086669845581,119.1746669845581,118.1746669845581,132.7086669845581,86.4999669845581,132.7086669845581C86.4999669845581,132.7086669845581,86.4999669845581,132.7086669845581,86.4999669845581,132.7086669845581ZM51.49996698455811,16.041666984558105C24.608366984558106,16.041666984558105,15.041666984558105,25.608366984558106,15.041666984558105,52.49996698455811C15.041666984558105,52.49996698455811,15.041666984558105,87.4999669845581,15.041666984558105,87.4999669845581C15.041666984558105,114.3916669845581,24.608366984558106,123.9586669845581,51.49996698455811,123.9586669845581C51.49996698455811,123.9586669845581,86.4999669845581,123.9586669845581,86.4999669845581,123.9586669845581C113.3916669845581,123.9586669845581,122.9586669845581,114.3916669845581,122.9586669845581,87.4999669845581C122.9586669845581,87.4999669845581,122.9586669845581,52.49996698455811,122.9586669845581,52.49996698455811C122.9586669845581,25.608366984558106,113.3916669845581,16.041666984558105,86.4999669845581,16.041666984558105C86.4999669845581,16.041666984558105,51.49996698455811,16.041666984558105,51.49996698455811,16.041666984558105C51.49996698455811,16.041666984558105,51.49996698455811,16.041666984558105,51.49996698455811,16.041666984558105Z" fill="#FFFFFF" fill-opacity="1"/></g><g><path d="M89.41669999999999,112.2916339691162C80.55,112.2916339691162,73.375,105.11663396911621,73.375,96.25003396911622C73.375,96.25003396911622,73.375,43.75003396911621,73.375,43.75003396911621C73.375,34.88333396911621,80.55,27.70833396911621,89.41669999999999,27.70833396911621C98.2833,27.70833396911621,105.45830000000001,34.88333396911621,105.45830000000001,43.75003396911621C105.45830000000001,43.75003396911621,105.45830000000001,96.25003396911622,105.45830000000001,96.25003396911622C105.45830000000001,105.11663396911621,98.2833,112.2916339691162,89.41669999999999,112.2916339691162C89.41669999999999,112.2916339691162,89.41669999999999,112.2916339691162,89.41669999999999,112.2916339691162ZM89.41669999999999,36.45833396911621C85.3917,36.45833396911621,82.125,39.72503396911621,82.125,43.75003396911621C82.125,43.75003396911621,82.125,96.25003396911622,82.125,96.25003396911622C82.125,100.27503396911621,85.3917,103.5416339691162,89.41669999999999,103.5416339691162C93.4417,103.5416339691162,96.70830000000001,100.27503396911621,96.70830000000001,96.25003396911622C96.70830000000001,96.25003396911622,96.70830000000001,43.75003396911621,96.70830000000001,43.75003396911621C96.70830000000001,39.72503396911621,93.4417,36.45833396911621,89.41669999999999,36.45833396911621C89.41669999999999,36.45833396911621,89.41669999999999,36.45833396911621,89.41669999999999,36.45833396911621Z" fill="#FFFFFF" fill-opacity="1"/></g><g><path d="M48.58336793823242,112.29166793823242C39.71666793823242,112.29166793823242,32.54166793823242,105.11666793823242,32.54166793823242,96.24996793823243C32.54166793823242,96.24996793823243,32.54166793823242,75.83336793823241,32.54166793823242,75.83336793823241C32.54166793823242,66.96666793823242,39.71666793823242,59.79166793823242,48.58336793823242,59.79166793823242C57.44996793823242,59.79166793823242,64.62496793823243,66.96666793823242,64.62496793823243,75.83336793823241C64.62496793823243,75.83336793823241,64.62496793823243,96.24996793823243,64.62496793823243,96.24996793823243C64.62496793823243,105.11666793823242,57.44996793823242,112.29166793823242,48.58336793823242,112.29166793823242C48.58336793823242,112.29166793823242,48.58336793823242,112.29166793823242,48.58336793823242,112.29166793823242ZM48.58336793823242,68.54166793823242C44.55836793823242,68.54166793823242,41.29166793823242,71.80836793823242,41.29166793823242,75.83336793823241C41.29166793823242,75.83336793823241,41.29166793823242,96.24996793823243,41.29166793823242,96.24996793823243C41.29166793823242,100.27496793823242,44.55836793823242,103.54166793823242,48.58336793823242,103.54166793823242C52.60836793823242,103.54166793823242,55.87496793823242,100.27496793823242,55.87496793823242,96.24996793823243C55.87496793823242,96.24996793823243,55.87496793823242,75.83336793823241,55.87496793823242,75.83336793823241C55.87496793823242,71.80836793823242,52.60836793823242,68.54166793823242,48.58336793823242,68.54166793823242C48.58336793823242,68.54166793823242,48.58336793823242,68.54166793823242,48.58336793823242,68.54166793823242Z" fill="#FFFFFF" fill-opacity="1"/></g><g style="opacity:0;"></g></g></g></svg>