<svg xmlns="http://www.w3.org/2000/svg" xmlns:xlink="http://www.w3.org/1999/xlink" fill="none" version="1.1" width="140" height="112" viewBox="0 0 140 112"><defs><mask id="master_svg0_6_6031" style="mask-type:alpha" maskUnits="objectBoundingBox"><g><rect x="0" y="0" width="140" height="112" rx="0" fill="#FFFFFF" fill-opacity="1"/></g></mask></defs><g mask="url(#master_svg0_6_6031)"><g style="opacity:0.30000001192092896;"><g><path d="M69.99996698455811,132.7086669845581C35.40836698455811,132.7086669845581,7.2916669845581055,104.5916669845581,7.2916669845581055,69.99996698455811C7.2916669845581055,35.40836698455811,35.40836698455811,7.2916669845581055,69.99996698455811,7.2916669845581055C104.5916669845581,7.2916669845581055,132.7086669845581,35.40836698455811,132.7086669845581,69.99996698455811C132.7086669845581,104.5916669845581,104.5916669845581,132.7086669845581,69.99996698455811,132.7086669845581C69.99996698455811,132.7086669845581,69.99996698455811,132.7086669845581,69.99996698455811,132.7086669845581ZM69.99996698455811,16.041666984558105C40.24996698455811,16.041666984558105,16.041666984558105,40.24996698455811,16.041666984558105,69.99996698455811C16.041666984558105,99.7499669845581,40.24996698455811,123.9586669845581,69.99996698455811,123.9586669845581C99.7499669845581,123.9586669845581,123.9586669845581,99.7499669845581,123.9586669845581,69.99996698455811C123.9586669845581,40.24996698455811,99.7499669845581,16.041666984558105,69.99996698455811,16.041666984558105C69.99996698455811,16.041666984558105,69.99996698455811,16.041666984558105,69.99996698455811,16.041666984558105Z" fill="#FFFFFF" fill-opacity="1"/></g><g><path d="M52.50002482299804,126.875C52.50002482299804,126.875,46.666644822998045,126.875,46.666644822998045,126.875C44.27497482299805,126.875,42.291644822998045,124.892,42.291644822998045,122.5C42.291644822998045,120.108,44.15830482299805,118.183,46.549974822998045,118.125C37.391644822998046,86.8583,37.391644822998046,53.1417,46.549974822998045,21.875C44.15830482299805,21.816670000000002,42.291644822998045,19.89167,42.291644822998045,17.5C42.291644822998045,15.10833,44.27497482299805,13.125,46.666644822998045,13.125C46.666644822998045,13.125,52.50002482299804,13.125,52.50002482299804,13.125C53.90002482299805,13.125,55.24162482299805,13.825,56.058324822998046,14.93333C56.87502482299804,16.1,57.10832482299804,17.558329999999998,56.64162482299805,18.9C45.674974822998045,51.8583,45.674974822998045,88.1417,56.64162482299805,121.158C57.10832482299804,122.5,56.87502482299804,123.958,56.058324822998046,125.125C55.24162482299805,126.175,53.90002482299805,126.875,52.50002482299804,126.875C52.50002482299804,126.875,52.50002482299804,126.875,52.50002482299804,126.875Z" fill="#FFFFFF" fill-opacity="1"/></g><g><path d="M87.50001523681641,126.8753059387207C87.0333452368164,126.8753059387207,86.56668523681641,126.8163059387207,86.1000152368164,126.6413059387207C83.8250142368164,125.88330593872071,82.5416812368164,123.3753059387207,83.35834823681641,121.10030593872071C94.32500523681641,88.1415059387207,94.32500523681641,51.858105938720705,83.35834823681641,18.841435938720704C82.6000152368164,16.5664359387207,83.8250142368164,14.058105938720702,86.1000152368164,13.299774938720702C88.43334523681641,12.541441938720704,90.88334523681641,13.766439938720703,91.6416852368164,16.041435938720703C103.2500052368164,50.8081059387207,103.2500052368164,89.0749059387207,91.6416852368164,123.7833059387207C91.05834523681641,125.7083059387207,89.30834523681641,126.8753059387207,87.50001523681641,126.8753059387207C87.50001523681641,126.8753059387207,87.50001523681641,126.8753059387207,87.50001523681641,126.8753059387207Z" fill="#FFFFFF" fill-opacity="1"/></g><g><path d="M70,100.33368012695313C53.725,100.33368012695313,37.5083,98.05868012695312,21.875,93.45038012695312C21.816670000000002,95.78368012695313,19.89167,97.70868012695313,17.5,97.70868012695313C15.10833,97.70868012695313,13.125,95.72538012695313,13.125,93.33368012695313C13.125,93.33368012695313,13.125,87.50039012695312,13.125,87.50039012695312C13.125,86.10039012695313,13.825,84.75873012695313,14.93333,83.94206212695312C16.1,83.12539354695312,17.558329999999998,82.89205812695313,18.9,83.35872412695312C51.8583,94.32538012695312,88.2,94.32538012695312,121.158,83.35872412695312C122.5,82.89205812695313,123.958,83.12539354695312,125.125,83.94206212695312C126.292,84.75873012695313,126.933,86.10039012695313,126.933,87.50039012695312C126.933,87.50039012695312,126.933,93.33368012695313,126.933,93.33368012695313C126.933,95.72538012695313,124.95,97.70868012695313,122.558,97.70868012695313C120.167,97.70868012695313,118.242,95.84208012695312,118.183,93.45038012695312C102.4917,98.05868012695312,86.275,100.33368012695313,70,100.33368012695313C70,100.33368012695313,70,100.33368012695313,70,100.33368012695313Z" fill="#FFFFFF" fill-opacity="1"/></g><g><path d="M122.5004860610962,56.875461187744136C122.0334860610962,56.875461187744136,121.56648606109619,56.81716118774414,121.10048606109619,56.642161187744136C88.1416860610962,45.67548118774414,51.79998606109619,45.67548118774414,18.84167606109619,56.642161187744136C16.50834606109619,57.40046118774414,14.058344061096191,56.17546118774414,13.300010061096192,53.90046118774414C12.600010061096192,51.56716118774414,13.825011061096191,49.11714118774414,16.10000606109619,48.35881118774414C50.86668606109619,36.75048118774414,89.13338606109619,36.75048118774414,123.84148606109619,48.35881118774414C126.1164860610962,49.11714118774414,127.40048606109619,51.625461187744136,126.5834860610962,53.90046118774414C126.05848606109619,55.708761187744145,124.30848606109619,56.875461187744136,122.5004860610962,56.875461187744136C122.5004860610962,56.875461187744136,122.5004860610962,56.875461187744136,122.5004860610962,56.875461187744136Z" fill="#FFFFFF" fill-opacity="1"/></g><g style="opacity:0;"></g></g></g></svg>