<svg xmlns="http://www.w3.org/2000/svg" xmlns:xlink="http://www.w3.org/1999/xlink" fill="none" version="1.1" width="245" height="33" viewBox="0 0 245 33"><defs><linearGradient x1="-0.409088134765625" y1="0.5" x2="1" y2="0.7916666865348816" id="master_svg0_6_03604"><stop offset="0%" stop-color="#FF6824" stop-opacity="1"/><stop offset="100%" stop-color="#F92BBD" stop-opacity="1"/></linearGradient></defs><g><g><path d="M32.0943,0.998573C33.5212,2.43924,33.2423,5.9539,31.3975,9.78097C32.3316,11.8853,32.8141,14.1621,32.8141,16.4653C32.8141,25.5474,25.4684,32.9099,16.407,32.9099C14.0537,32.9099,11.7271,32.4023,9.58671,31.4217C6.49821,32.8712,3.81712,33.3474,2.13098,32.7459C1.66332,32.5791,1.25429,32.3246,0.934195,32.0014C-0.468992,30.5846,-0.22819,27.1568,1.53735,23.4154C0.524621,21.2387,0,18.867,0,16.4653C0,7.38315,7.34567,0.0206361,16.407,0.0206361C18.828,0.0206361,21.2199,0.557906,23.4093,1.59352C26.5119,0.132242,29.2054,-0.34954,30.8975,0.254109C31.3652,0.420942,31.7742,0.67538,32.0943,0.998573ZM2.50319,31.0539Q0.367737,30.0095,3.27274,23.9984L6.3516,27.9179L6.3516,12.2399Q7.12132,8.32037,10.9699,8.32037Q14.8185,8.32037,20.9762,17.7273L20.9762,6.75266C20.9762,2.83314,27.9036,0.481513,30.2128,2.04924Q32.5219,3.61697,29.4431,9.10426L26.3642,5.18475Q29.4431,22.4306,24.0551,24.7823Q18.6671,27.134,11.7396,15.3755Q11.8091,25.3024,11.7397,27.1342Q11.6702,28.9659,8.66082,30.2698Q4.63864,32.0982,2.50319,31.0539Z" fill-rule="evenodd" fill="url(#master_svg0_6_03604)" fill-opacity="1"/></g><g><path d="M45.460268,27L45.460268,23.2345L61.0282,23.2634Q62.2194,23.2634,62.8557,22.6697Q63.4919,22.0759,63.4919,20.7434Q63.4919,19.411,62.8557,18.8172Q62.2194,18.223399999999998,61.0282,18.223399999999998L51.33545,18.223399999999998Q48.33017,18.223399999999998,46.66509,16.6738Q45,15.12414,45,12.11172Q45,9.09931,46.66509,7.54965Q48.33017,6,51.33545,6L66.5514,6L66.5514,9.76552L51.79572,9.73655Q50.63151,9.73655,49.98172,10.30138Q49.33193,10.866209999999999,49.33193,12.11172Q49.33193,13.357240000000001,49.98172,13.92207Q50.63151,14.48689,51.79572,14.48689L61.4884,14.48689Q64.4937,14.48689,66.1588,16.0655Q67.8239,17.6441,67.8239,20.7434Q67.8239,23.8138,66.1588,25.4069Q64.4937,27,61.4884,27L45.460268,27ZM70.5313,26.8552L70.5313,6.144827L74.8633,6.144827L74.8633,14.63173L88.5089,14.63173L88.5089,6.144827L92.8408,6.144827L92.8408,26.8552L88.5089,26.8552L88.5089,18.397199999999998L74.8633,18.397199999999998L74.8633,26.8552L70.5313,26.8552ZM106.40520000000001,27Q101.2339,27,98.3911,24.3497Q95.5483,21.6993,95.5483,16.485500000000002Q95.5483,11.30069,98.3911,8.65034Q101.2339,6,106.5947,6L111.4681,6Q116.8289,6,119.6717,8.65034Q122.5145,11.30069,122.5145,16.485500000000002Q122.5145,21.6993,119.6717,24.3497Q116.8289,27,111.6035,27L106.40520000000001,27ZM106.8925,9.76552Q103.8872,9.76552,102.20859999999999,10.924140000000001Q100.53,12.08276,100.0968,14.60276L117.966,14.60276Q117.5328,12.08276,115.8542,10.924140000000001Q114.1756,9.76552,111.1703,9.76552L106.8925,9.76552ZM106.97370000000001,23.2345L111.1703,23.2345Q114.2027,23.2345,115.8677,22.0759Q117.5328,20.9172,117.966,18.368299999999998L100.0968,18.368299999999998Q100.53,20.9172,102.20859999999999,22.0759Q103.8872,23.2345,106.97370000000001,23.2345ZM126.5757,26.8552L124.4098,6.144827L128.74169999999998,6.144827L130.3391,21.2648L135.727,16.8331L135.727,6.144827L140.0589,6.144827L140.0589,16.862099999999998L145.393,21.2648L147.017,6.144827L151.349,6.144827L149.183,26.8552L145.555,26.8552L137.8929,20.222099999999998L130.2037,26.8552L126.5757,26.8552ZM164.074,26.8552L164.074,6.144827L168.45999999999998,6.144827L182.16,21.033099999999997L182.16,6.144827L186.492,6.144827L186.492,26.8552L182.106,26.8552L168.406,11.93793L168.406,26.8552L164.074,26.8552ZM200.056,27Q194.885,27,192.042,24.3497Q189.199,21.6993,189.199,16.485500000000002Q189.199,11.30069,192.042,8.65034Q194.885,6,200.246,6L205.119,6Q210.48,6,213.323,8.65034Q216.166,11.30069,216.166,16.485500000000002Q216.166,21.6993,213.323,24.3497Q210.48,27,205.255,27L200.056,27ZM200.544,9.76552Q197.538,9.76552,195.86,10.924140000000001Q194.181,12.08276,193.748,14.60276L211.617,14.60276Q211.184,12.08276,209.505,10.924140000000001Q207.827,9.76552,204.821,9.76552L200.544,9.76552ZM200.625,23.2345L204.821,23.2345Q207.854,23.2345,209.519,22.0759Q211.184,20.9172,211.617,18.368299999999998L193.748,18.368299999999998Q194.181,20.9172,195.86,22.0759Q197.538,23.2345,200.625,23.2345ZM220.227,26.8552L218.061,6.144827L222.393,6.144827L223.99,21.2648L229.378,16.8331L229.378,6.144827L233.71,6.144827L233.71,16.862099999999998L239.044,21.2648L240.668,6.144827L245,6.144827L242.834,26.8552L239.206,26.8552L231.544,20.222099999999998L223.855,26.8552L220.227,26.8552Z" fill="#000000" fill-opacity="1"/></g></g></svg>