<svg xmlns="http://www.w3.org/2000/svg" xmlns:xlink="http://www.w3.org/1999/xlink" fill="none" version="1.1" width="1040" height="326" viewBox="0 0 1040 326"><g><g></g><g><g><g><path d="M339.8376159667969,215.78414340209963L339.8376159667969,107.67662340209961L360.3699159667969,107.67662340209961L406.1632159667969,184.0320434020996L395.3138159667969,184.0320434020996L440.2506159667969,107.67662340209961L460.7846159667969,107.67662340209961L460.9986159667969,215.78414340209963L437.70341596679685,215.78414340209963L437.48981596679687,143.7356434020996L441.8776159667969,143.7356434020996L405.8896159667969,204.28284340209962L394.7329159667969,204.28284340209962L357.9768159667969,143.7356434020996L363.13271596679687,143.7356434020996L363.13271596679687,215.78414340209963L339.8376159667969,215.78414340209963ZM525.8356159667969,216.9561434020996Q511.6786159667969,216.9561434020996,501.06961596679685,211.4281434020996Q490.4596159667969,205.8991434020996,484.6246159667969,196.2182434020996Q478.7896159667969,186.5368434020996,478.7896159667969,174.2131434020996Q478.7896159667969,161.7663434020996,484.4996159667969,152.1163434020996Q490.2126159667969,142.4663434020996,500.2076159667969,137.0006434020996Q510.20461596679684,131.5325434020996,522.7966159667969,131.5325434020996Q534.9616159667969,131.5325434020996,544.6956159667968,136.7086434020996Q554.4306159667968,141.8823434020996,560.1096159667968,151.52034340209963Q565.7916159667968,161.1558434020996,565.7916159667968,174.5847434020996Q565.7916159667968,175.97234340209963,565.6836159667969,177.7459434020996Q565.5776159667969,179.5195434020996,565.4246159667969,181.0012434020996L498.24661596679687,181.0012434020996L498.24661596679687,166.96174340209961L552.7366159667969,166.96174340209961L543.4786159667968,171.16054340209962Q543.5716159667969,164.72724340209962,540.9246159667969,159.9034434020996Q538.2766159667968,155.0772434020996,533.6756159667968,152.3552434020996Q529.0736159667969,149.6308434020996,522.9166159667968,149.6308434020996Q516.7626159667968,149.6308434020996,512.084615966797,152.3552434020996Q507.40661596679683,155.0772434020996,504.83561596679687,159.94924340209963Q502.2646159667969,164.82134340209961,502.2646159667969,171.4405434020996L502.2646159667969,175.20014340209963Q502.2646159667969,182.0050434020996,505.2486159667969,187.1232434020996Q508.23461596679687,192.2414434020996,513.7116159667969,195.0116434020996Q519.1896159667969,197.7795434020996,526.5416159667968,197.7795434020996Q533.1206159667969,197.7795434020996,538.0896159667968,195.76944340209963Q543.0586159667969,193.75924340209963,547.2996159667969,189.6449434020996L560.0496159667969,203.55164340209961Q554.2746159667969,210.0981434020996,545.7056159667968,213.52714340209963Q537.1366159667969,216.9561434020996,525.8356159667969,216.9561434020996ZM615.6366159667969,216.9561434020996Q600.9656159667968,216.9561434020996,592.8626159667969,209.51914340209962Q584.7616159667969,202.0796434020996,584.7616159667969,187.23664340209962L584.7616159667969,114.26681340209961L608.7256159667968,114.26681340209961L608.7256159667968,186.8336434020996Q608.7256159667968,192.0918434020996,611.4476159667969,194.9996434020996Q614.1726159667969,197.9074434020996,618.9126159667969,197.9074434020996Q624.6646159667969,197.9074434020996,628.6946159667968,194.8452434020996L635.0436159667969,211.8241434020996Q631.4186159667969,214.4201434020996,626.2746159667969,215.6891434020996Q621.1306159667969,216.9561434020996,615.6366159667969,216.9561434020996ZM571.9416159667969,153.0333434020996L571.9416159667969,134.5417434020996L629.2676159667969,134.5417434020996L629.2676159667969,153.0333434020996L571.9416159667969,153.0333434020996ZM699.2416159667969,215.78414340209963L699.2416159667969,199.5917434020996L697.8046159667969,195.9479434020996L697.8046159667969,166.97384340209962Q697.8046159667969,159.2108434020996,693.1116159667969,154.9445434020996Q688.4216159667969,150.6757434020996,678.6766159667968,150.6757434020996Q672.1566159667968,150.6757434020996,665.7626159667968,152.73164340209962Q659.3706159667969,154.7852434020996,654.8506159667968,158.3397434020996L646.2936159667969,141.5735434020996Q653.1106159667969,136.66044340209962,662.6156159667969,134.0977434020996Q672.1206159667969,131.5325434020996,681.9526159667969,131.5325434020996Q700.9246159667969,131.5325434020996,711.3466159667969,140.4707434020996Q721.7686159667969,149.40644340209963,721.7686159667969,168.3275434020996L721.7686159667969,215.78414340209963L699.2416159667969,215.78414340209963ZM674.132615966797,216.9561434020996Q664.4906159667969,216.9561434020996,657.5776159667969,213.6841434020996Q650.6646159667969,210.4101434020996,646.9916159667969,204.6979434020996Q643.3196159667968,198.9836434020996,643.3196159667968,191.8191434020996Q643.3196159667968,184.4736434020996,646.9106159667969,178.89944340209962Q650.5016159667969,173.3227434020996,658.3306159667968,170.1567434020996Q666.1636159667969,166.98834340209962,678.757615966797,166.98834340209962L700.6266159667969,166.98834340209962L700.6266159667969,181.0277434020996L681.4146159667969,181.0277434020996Q672.9176159667968,181.0277434020996,669.7806159667969,183.7835434020996Q666.6436159667969,186.5368434020996,666.6436159667969,190.83464340209963Q666.6436159667969,195.3519434020996,670.2146159667968,198.0763434020996Q673.786615966797,200.7983434020996,680.036615966797,200.7983434020996Q686.0736159667969,200.7983434020996,690.8766159667969,197.9822434020996Q695.6796159667969,195.1661434020996,697.8046159667969,189.50494340209963L701.4236159667969,200.6921434020996Q698.872615966797,208.62114340209962,691.9546159667968,212.78914340209963Q685.0396159667969,216.9561434020996,674.132615966797,216.9561434020996ZM780.4546159667968,217.6031434020996Q767.5836159667969,217.6031434020996,755.728615966797,214.1431434020996Q743.8736159667969,210.6801434020996,736.6586159667969,205.1781434020996L745.0906159667968,186.2569434020996Q751.9366159667968,191.2014434020996,761.4296159667969,194.3698434020996Q770.9256159667968,197.53824340209962,780.5766159667969,197.53824340209962Q788.0246159667969,197.53824340209962,792.5496159667969,196.0517434020996Q797.074615966797,194.5628434020996,799.1986159667969,191.9470434020996Q801.3226159667969,189.3288434020996,801.3226159667969,185.9842434020996Q801.3226159667969,181.6527434020996,797.9096159667969,179.06834340209963Q794.4986159667969,176.4838434020996,788.9656159667968,174.8598434020996Q783.4356159667968,173.2358434020996,776.7656159667969,171.7831434020996Q770.0966159667969,170.3304434020996,763.3976159667968,168.2165434020996Q756.6986159667969,166.1002434020996,751.1656159667968,162.68814340209963Q745.6356159667969,159.27604340209962,742.2246159667968,153.6703434020996Q738.8136159667969,148.06474340209962,738.8136159667969,139.4161434020996Q738.8136159667969,130.2174434020996,743.7706159667969,122.60654340209962Q748.7296159667969,114.9955634020996,758.8016159667968,110.4275534020996Q768.872615966797,105.85714340209961,784.1656159667968,105.85714340209961Q794.2366159667969,105.85714340209961,804.0956159667969,108.26783340209961Q813.9556159667968,110.67852340209961,821.4756159667968,115.37201340209961L813.7206159667969,134.3245434020996Q806.2886159667969,130.0316434020996,798.699615966797,127.97804340209962Q791.1096159667968,125.9221434020996,783.9516159667969,125.9221434020996Q776.6886159667969,125.9221434020996,772.132615966797,127.59434340209961Q767.5766159667969,129.26664340209962,765.5296159667969,132.0224434020996Q763.4816159667969,134.7782434020996,763.4816159667969,138.21444340209962Q763.4816159667969,142.4856434020996,766.8926159667969,145.0411434020996Q770.305615966797,147.5941434020996,775.8366159667969,149.1409434020996Q781.3686159667968,150.6877434020996,788.0686159667969,152.1573434020996Q794.7676159667969,153.62454340209962,801.4356159667968,155.69494340209963Q808.1056159667969,157.7630434020996,813.6366159667969,161.1293434020996Q819.1696159667969,164.4931434020996,822.5796159667968,170.06744340209963Q825.9936159667968,175.64174340209962,825.9936159667968,184.13584340209962Q825.9936159667968,193.1825434020996,820.9886159667969,200.7935434020996Q815.9836159667968,208.40214340209963,805.8956159667969,213.0041434020996Q795.8096159667969,217.6031434020996,780.4546159667968,217.6031434020996ZM880.6696159667969,216.9561434020996Q867.5376159667969,216.9561434020996,857.3196159667968,211.4591434020996Q847.103615966797,205.96014340209962,841.2236159667968,196.2930434020996Q835.3426159667969,186.6237434020996,835.3426159667969,174.1962434020996Q835.3426159667969,161.6746434020996,841.2396159667969,152.06564340209962Q847.1396159667969,142.45674340209962,857.3176159667969,136.9958434020996Q867.4966159667969,131.5325434020996,880.6696159667969,131.5325434020996Q893.8456159667969,131.5325434020996,904.1046159667969,136.9886434020996Q914.3656159667969,142.44464340209962,920.1816159667969,152.04394340209961Q925.9996159667969,161.64084340209962,925.9996159667969,174.1986434020996Q925.9996159667969,186.6575434020996,920.1936159667969,196.3099434020996Q914.3896159667969,205.96014340209962,904.0946159667968,211.4591434020996Q893.7996159667969,216.9561434020996,880.6696159667969,216.9561434020996ZM880.6696159667969,197.22934340209963Q886.7356159667969,197.22934340209963,891.4766159667969,194.49044340209963Q896.2166159667969,191.75154340209963,898.9866159667969,186.5248434020996Q901.7596159667969,181.2956434020996,901.7596159667969,174.20104340209963Q901.7596159667969,166.9762434020996,898.9866159667969,161.85564340209962Q896.2166159667969,156.73504340209962,891.4766159667969,153.99614340209962Q886.7356159667969,151.25724340209962,880.7176159667969,151.25724340209962Q874.6976159667969,151.25724340209962,869.9576159667969,153.99614340209962Q865.2166159667969,156.73504340209962,862.3986159667969,161.85564340209962Q859.5836159667969,166.9762434020996,859.5836159667969,174.20104340209963Q859.5836159667969,181.2956434020996,862.3986159667969,186.5248434020996Q865.2166159667969,191.75154340209963,869.9506159667969,194.49044340209963Q874.6856159667968,197.22934340209963,880.6696159667969,197.22934340209963Z" fill="#002E33" fill-opacity="1"/></g><g><g><path d="M281.48212207031247,163Q281.48212207031247,138.01670000000001,268.38612207031247,116.8819L255.4331220703125,124.90809999999999Q266.2431220703125,142.3551,266.2431220703125,163Q266.2431220703125,192.983,245.0611220703125,214.183Q223.8821220703125,235.381,193.9314220703125,235.381Q163.9806220703125,235.381,142.8012220703125,214.183Q121.6191720703125,192.983,121.6191720703125,163Q121.6191820703125,133.0169,142.8012220703125,111.8166Q163.9806220703125,90.61906,193.9313220703125,90.61907Q210.52292207031252,90.61906,225.3391220703125,97.7824L231.97212207031248,84.06353Q214.0131220703125,75.38094,193.9313220703125,75.38095Q176.1231220703125,75.38095,159.8483220703125,82.270534Q144.1351220703125,88.92237,132.0216220703125,101.0463Q119.9088120703125,113.1695,113.2634140703125,128.8945Q106.3810620703125,145.1802,106.3810520703125,163Q106.3810620703125,180.8198,113.2634080703125,197.10500000000002Q119.9088020703125,212.83,132.0216220703125,224.954Q144.1351220703125,237.078,159.8483220703125,243.729Q176.1231220703125,250.619,193.9314220703125,250.619Q211.7395220703125,250.619,228.0141220703125,243.729Q243.7271220703125,237.078,255.8411220703125,224.954Q267.9541220703125,212.831,274.5991220703125,197.10500000000002Q281.48212207031247,180.8197,281.48212207031247,163Z" fill-rule="evenodd" fill="#002E33" fill-opacity="1"/></g><g><ellipse cx="178.70636796951294" cy="178.23809814453125" rx="57.093746185302734" ry="57.142860412597656" fill-opacity="0" stroke-opacity="1" stroke="#002E33" fill="none" stroke-width="15.238115310668945"/></g><g><ellipse cx="166.0188684463501" cy="194.74603271484375" rx="36.79374694824219" ry="38.095237731933594" fill-opacity="0" stroke-opacity="1" stroke="#002E33" fill="none" stroke-width="12.698429107666016"/></g><g><ellipse cx="252.2938690185547" cy="105.85714340209961" rx="21.568748474121094" ry="22.85714340209961" fill-opacity="0" stroke-opacity="1" stroke="#002E33" fill="none" stroke-width="15.238115310668945"/></g></g></g></g></g></svg>