<svg xmlns="http://www.w3.org/2000/svg" xmlns:xlink="http://www.w3.org/1999/xlink" fill="none" version="1.1" width="20" height="20" viewBox="0 0 20 20"><g><g><ellipse cx="10" cy="10" rx="10" ry="10" fill="#95EBF0" fill-opacity="1"/></g><g><g><g><g><path d="M14.347030870056152,7.4407361740112306Q15.172430870056152,8.771546174011231,15.172430870056152,10.344826174011232Q15.172430870056152,11.46704617401123,14.738630870056152,12.49250617401123Q14.319830870056153,13.482696174011231,13.556450870056151,14.24610617401123Q12.793040870056153,15.009486174011231,11.802850870056153,15.42828617401123Q10.777390870056152,15.86208617401123,9.655170870056153,15.86208617401123Q8.532960870056153,15.86208617401123,7.507490870056152,15.42828617401123Q6.517310870056152,15.009486174011231,5.753890870056153,14.24610617401123Q4.990478870056152,13.482696174011231,4.571666870056152,12.49250617401123Q4.137930870056152,11.46704617401123,4.137930870056152,10.344826174011232Q4.137931183654152,9.22261617401123,4.571667870056152,8.19714617401123Q4.990478870056152,7.20696617401123,5.753890870056153,6.443546174011231Q6.517310870056152,5.680133174011231,7.507490870056152,5.26132217401123Q8.532960870056153,4.827586134811431,9.655170870056153,4.8275861740112305Q10.920650870056154,4.8275864876092305,12.052220870056154,5.374204174011231L11.704410870056153,6.0941961740112305Q10.737640870056152,5.62718617401123,9.655170870056153,5.62718617401123Q8.695100870056152,5.62718617401123,7.818980870056152,5.99775617401123Q6.972430870056153,6.35581617401123,6.319300870056152,7.00895617401123Q5.666160870056152,7.662086174011231,5.308100870056152,8.50863617401123Q4.937530870056152,9.38475617401123,4.937530870056152,10.344826174011232Q4.937530870056152,11.30489617401123,5.308100870056152,12.18102617401123Q5.666160870056152,13.02756617401123,6.319300870056152,13.680706174011231Q6.972430870056153,14.33383617401123,7.818980870056152,14.69189617401123Q8.695100870056152,15.06248617401123,9.655170870056153,15.06248617401123Q10.615240870056152,15.06248617401123,11.491370870056151,14.69189617401123Q12.337910870056152,14.33383617401123,12.991050870056153,13.680706174011231Q13.644190870056152,13.02756617401123,14.002240870056152,12.18102617401123Q14.372830870056152,11.30489617401123,14.372830870056152,10.344826174011232Q14.372830870056152,8.99936617401123,13.667550870056152,7.8621661740112305L14.347030870056152,7.4407361740112306Z" fill-rule="evenodd" fill="#002E33" fill-opacity="1"/></g><g><path d="M8.692916914577484,15.337199896087647C10.918696914577485,15.337199896087647,12.723036914577484,13.532859896087647,12.723036914577484,11.307079896087647C12.723036914577484,9.081309896087646,10.918696914577485,7.2769598960876465,8.692916914577484,7.2769598960876465C6.467146914577484,7.2769598960876465,4.662796914577484,9.081309896087646,4.662796914577484,11.307079896087647C4.662796914577484,13.532859896087647,6.467146914577484,15.337199896087647,8.692916914577484,15.337199896087647ZM8.692916914577484,8.076559896087646C10.477086914577484,8.076559896087646,11.923436914577485,9.522909896087647,11.923436914577485,11.307079896087647C11.923436914577485,13.091249896087646,10.477086914577484,14.537599896087647,8.692916914577484,14.537599896087647C6.908746914577485,14.537599896087647,5.462396914577484,13.091249896087646,5.462396914577484,11.307079896087647C5.462396914577484,9.522909896087647,6.908746914577485,8.076559896087646,8.692916914577484,8.076559896087646Z" fill-rule="evenodd" fill="#002E33" fill-opacity="1"/></g><g><path d="M10.381651854667663,13.425725306549072Q10.570271854667663,12.931645306549072,10.570271854667663,12.400555306549073Q10.570271854667663,11.869465306549072,10.381651854667663,11.375375306549072Q10.176381854667664,10.837665306549072,9.781411854667663,10.428070306549072Q9.385011854667663,10.016986306549072,8.862881854667663,9.802622306549072Q8.380751854667663,9.604685306549072,7.861881854667663,9.604685306549072Q7.343001854667664,9.604685267349272,6.860881854667664,9.802622306549072Q6.338751854667663,10.016986306549072,5.942346854667663,10.428070306549072Q5.547382854667664,10.837665306549072,5.3421098546676635,11.375375306549072Q5.153491854667664,11.869465306549072,5.153491854667664,12.400555306549073Q5.153491854667664,12.931645306549072,5.3421098546676635,13.425725306549072Q5.547382854667664,13.963445306549072,5.942347854667664,14.373035306549072Q6.338751854667663,14.784115306549072,6.860881854667664,14.998485306549071Q7.3430118546676635,15.196415306549072,7.861881854667663,15.196415306549072Q8.380751854667663,15.196415306549072,8.862881854667663,14.998485306549071Q9.385011854667663,14.784115306549072,9.781411854667663,14.373035306549072Q10.176381854667664,13.963445306549072,10.381651854667663,13.425725306549072ZM9.734241854667664,11.622525306549072Q9.877281854667665,11.997235306549072,9.877281854667665,12.400555306549073Q9.877281854667665,12.803865306549072,9.734241854667664,13.178575306549073Q9.579391854667664,13.584195306549072,9.282571854667664,13.892005306549073Q8.987191854667664,14.198325306549073,8.599691854667665,14.357415306549072Q8.244041854667664,14.503435306549072,7.861881854667663,14.503435306549072Q7.479721854667663,14.503435306549072,7.124071854667664,14.357415306549072Q6.736571854667663,14.198325306549073,6.441191854667664,13.892005306549073Q6.144370854667663,13.584195306549072,5.989525854667663,13.178575306549073Q5.846478854667664,12.803865306549072,5.846478854667664,12.400555306549073Q5.846478854667664,11.997235306549072,5.989525854667663,11.622525306549072Q6.144370854667663,11.216905306549073,6.441191854667664,10.909095306549073Q6.736571854667663,10.602775306549072,7.124071854667664,10.443684306549072Q7.479721854667663,10.297672306549073,7.861881854667663,10.297672306549073Q8.244041854667664,10.297672306549073,8.599691854667665,10.443684306549072Q8.987191854667664,10.602775306549072,9.282571854667664,10.909095306549073Q9.579391854667664,11.216905306549073,9.734241854667664,11.622525306549072Z" fill-rule="evenodd" fill="#002E33" fill-opacity="1"/></g><g><path d="M15.047590197143554,7.345356174011231Q15.172410197143554,7.020186174011231,15.172410197143554,6.670766174011231Q15.172410197143554,6.3213461740112304,15.047580197143555,5.9961761740112305Q14.911580197143554,5.64190217401123,14.649680197143555,5.37182317401123Q14.386380197143556,5.10029317401123,14.039290197143554,4.958587174011231Q13.718410197143555,4.8275861740112305,13.372970197143555,4.8275861740112305Q13.027530197143555,4.8275861740112305,12.706660197143554,4.958587174011231Q12.359561197143554,5.10029317401123,12.096259197143555,5.37182317401123Q11.834365197143555,5.64190117401123,11.698360197143554,5.9961761740112305Q11.573530197143555,6.3213461740112304,11.573530197143555,6.670766174011231Q11.573530197143555,7.020186174011231,11.698360197143554,7.345356174011231Q11.834365197143555,7.69963617401123,12.096259197143555,7.969706174011231Q12.359561197143554,8.24124617401123,12.706660197143554,8.38294617401123Q13.027530197143555,8.513946174011231,13.372970197143555,8.513946174011231Q13.718410197143555,8.513946174011231,14.039290197143554,8.38294617401123Q14.386380197143556,8.24124617401123,14.649680197143555,7.969706174011231Q14.911580197143554,7.69963617401123,15.047590197143554,7.345356174011231ZM14.075650197143554,5.9284661740112305Q14.372810197143554,6.234906174011231,14.372810197143554,6.670766174011231Q14.372810197143554,7.106626174011231,14.075650197143554,7.4130761740112305Q13.783510197143555,7.714346174011231,13.372970197143555,7.714346174011231Q12.962440197143554,7.714346174011231,12.670290197143554,7.4130761740112305Q12.373130197143555,7.106626174011231,12.373130197143555,6.670766174011231Q12.373130197143555,6.234906174011231,12.670290197143554,5.9284661740112305Q12.962440197143554,5.62718617401123,13.372970197143555,5.62718617401123Q13.783510197143555,5.62718617401123,14.075650197143554,5.9284661740112305Z" fill-rule="evenodd" fill="#002E33" fill-opacity="1"/></g></g></g></g></g></svg>