<svg xmlns="http://www.w3.org/2000/svg" xmlns:xlink="http://www.w3.org/1999/xlink" fill="none" version="1.1" width="140" height="112" viewBox="0 0 140 112"><defs><mask id="master_svg0_6_6034" style="mask-type:alpha" maskUnits="objectBoundingBox"><g><rect x="0" y="0" width="140" height="112" rx="0" fill="#FFFFFF" fill-opacity="1"/></g></mask></defs><g mask="url(#master_svg0_6_6034)"><g style="opacity:0.30000001192092896;"><g></g><g><path d="M98.8750813256836,103.24997214355469C97.7667513256836,103.24997214355469,96.65842132568359,102.84167214355469,95.78342132568359,101.96667214355469C94.0917543256836,100.27497214355469,94.0917543256836,97.47497214355468,95.78342132568359,95.78337214355469C102.66675132568359,88.89997214355469,106.4583713256836,79.7416721435547,106.4583713256836,69.99997214355469C106.4583713256836,60.25837214355469,102.66675132568359,51.100072143554684,95.78342132568359,44.21671214355469C94.0917543256836,42.525022143554686,94.0917543256836,39.72499214355469,95.78342132568359,38.033322143554685C97.4750913256836,36.34165514355469,100.2750813256836,36.34165514355469,101.96675132568359,38.033322143554685C110.4834713256836,46.54999214355469,115.2083713256836,57.92497214355468,115.2083713256836,69.99997214355469C115.2083713256836,82.07497214355469,110.4834713256836,93.45007214355468,101.96675132568359,101.96667214355469C101.09175132568359,102.84167214355469,99.98341132568359,103.24997214355469,98.8750813256836,103.24997214355469C98.8750813256836,103.24997214355469,98.8750813256836,103.24997214355469,98.8750813256836,103.24997214355469Z" fill="#FFFFFF" fill-opacity="1"/></g><g><path d="M41.12496793823242,103.24997214355469C40.01656793823242,103.24997214355469,38.90826793823242,102.84167214355469,38.03326793823242,101.96667214355469C29.516607938232422,93.45007214355468,24.791667938232422,82.07497214355469,24.791667938232422,69.99997214355469C24.791667938232422,57.92497214355468,29.516607938232422,46.54999214355469,38.03326793823242,38.033322143554685C39.724967938232425,36.34165514355469,42.52496793823242,36.34165514355469,44.21656793823242,38.033322143554685C45.90826793823242,39.72499214355469,45.90826793823242,42.525022143554686,44.21656793823242,44.21671214355469C37.333267938232424,51.100072143554684,33.54166793823242,60.25837214355469,33.54166793823242,69.99997214355469C33.54166793823242,79.7416721435547,37.333267938232424,88.89997214355469,44.21656793823242,95.78337214355469C45.90826793823242,97.47497214355468,45.90826793823242,100.27497214355469,44.21656793823242,101.96667214355469C43.34156793823242,102.84167214355469,42.23326793823242,103.24997214355469,41.12496793823242,103.24997214355469C41.12496793823242,103.24997214355469,41.12496793823242,103.24997214355469,41.12496793823242,103.24997214355469Z" fill="#FFFFFF" fill-opacity="1"/></g><g><path d="M75.7167213623047,93.44996793823242C75.7167213623047,93.44996793823242,65.45002136230468,93.44996793823242,65.45002136230468,93.44996793823242C58.04169136230469,93.44996793823242,51.97502136230469,87.20836793823241,51.97502136230469,79.56666793823243C51.97502136230469,77.17496793823241,53.95835136230469,75.19166793823243,56.35002136230469,75.19166793823243C58.741691362304685,75.19166793823243,60.72502136230469,77.17496793823241,60.72502136230469,79.56666793823243C60.72502136230469,82.42496793823241,62.82502136230469,84.69996793823242,65.45002136230468,84.69996793823242C65.45002136230468,84.69996793823242,75.7167213623047,84.69996793823242,75.7167213623047,84.69996793823242C77.64172136230468,84.69996793823242,79.2749213623047,82.94996793823242,79.2749213623047,80.79166793823242C79.2749213623047,78.04996793823241,78.63332136230468,77.69996793823242,76.76672136230468,77.05836793823242C76.76672136230468,77.05836793823242,60.375021362304686,71.34166793823242,60.375021362304686,71.34166793823242C54.77503136230469,69.35836793823242,52.03341186230469,65.44996793823242,52.03341186230469,59.32496793823242C52.03341186230469,52.324987938232425,57.51666136230469,46.66666793823242,64.34172136230468,46.66666793823242C64.34172136230468,46.66666793823242,74.60832136230468,46.66666793823242,74.60832136230468,46.66666793823242C82.01672136230468,46.66666793823242,88.08332136230469,52.90833793823242,88.08332136230469,60.54996793823242C88.08332136230469,62.94166793823242,86.10002136230469,64.92496793823241,83.70832136230469,64.92496793823241C81.31672136230469,64.92496793823241,79.33332136230469,62.94166793823242,79.33332136230469,60.54996793823242C79.33332136230469,57.69166793823242,77.23332136230468,55.41666793823242,74.60832136230468,55.41666793823242C74.60832136230468,55.41666793823242,64.34172136230468,55.41666793823242,64.34172136230468,55.41666793823242C62.416721362304685,55.41666793823242,60.78341136230469,57.16666793823242,60.78341136230469,59.32496793823242C60.78341136230469,62.06666793823242,61.42502136230469,62.41666793823242,63.291721362304685,63.05836793823242C63.291721362304685,63.05836793823242,79.6833213623047,68.77496793823242,79.6833213623047,68.77496793823242C85.28332136230469,70.75836793823242,88.0249213623047,74.66666793823242,88.0249213623047,80.79166793823242C87.96662136230469,87.73336793823242,82.48342136230468,93.44996793823242,75.7167213623047,93.44996793823242C75.7167213623047,93.44996793823242,75.7167213623047,93.44996793823242,75.7167213623047,93.44996793823242Z" fill="#FFFFFF" fill-opacity="1"/></g><g><path d="M70,98.87491907348632C67.60833,98.87491907348632,65.625,96.89161907348632,65.625,94.49991907348632C65.625,94.49991907348632,65.625,45.50001907348633,65.625,45.50001907348633C65.625,43.10834907348633,67.60833,41.12501907348633,70,41.12501907348633C72.39167,41.12501907348633,74.375,43.10834907348633,74.375,45.50001907348633C74.375,45.50001907348633,74.375,94.49991907348632,74.375,94.49991907348632C74.375,96.89161907348632,72.39167,98.87491907348632,70,98.87491907348632C70,98.87491907348632,70,98.87491907348632,70,98.87491907348632Z" fill="#FFFFFF" fill-opacity="1"/></g><g><path d="M69.99996698455811,132.7086669845581C35.40836698455811,132.7086669845581,7.2916669845581055,104.5916669845581,7.2916669845581055,69.99996698455811C7.2916669845581055,35.40836698455811,35.40836698455811,7.2916669845581055,69.99996698455811,7.2916669845581055C104.5916669845581,7.2916669845581055,132.7086669845581,35.40836698455811,132.7086669845581,69.99996698455811C132.7086669845581,104.5916669845581,104.5916669845581,132.7086669845581,69.99996698455811,132.7086669845581C69.99996698455811,132.7086669845581,69.99996698455811,132.7086669845581,69.99996698455811,132.7086669845581ZM69.99996698455811,16.041666984558105C40.24996698455811,16.041666984558105,16.041666984558105,40.24996698455811,16.041666984558105,69.99996698455811C16.041666984558105,99.7499669845581,40.24996698455811,123.9586669845581,69.99996698455811,123.9586669845581C99.7499669845581,123.9586669845581,123.9586669845581,99.7499669845581,123.9586669845581,69.99996698455811C123.9586669845581,40.24996698455811,99.7499669845581,16.041666984558105,69.99996698455811,16.041666984558105C69.99996698455811,16.041666984558105,69.99996698455811,16.041666984558105,69.99996698455811,16.041666984558105Z" fill="#FFFFFF" fill-opacity="1"/></g><g style="opacity:0;"></g></g></g></svg>