<svg xmlns="http://www.w3.org/2000/svg" xmlns:xlink="http://www.w3.org/1999/xlink" fill="none" version="1.1" width="38" height="38" viewBox="0 0 38 38"><defs><clipPath id="master_svg0_422_20639"><rect x="0" y="0" width="38" height="38" rx="0"/></clipPath></defs><g clip-path="url(#master_svg0_422_20639)"><g><path d="M34.705,1.8115234375L3.53917,1.8115234375C1.70685,1.8115234375,0,3.5871234375,0,5.4194534375L0,28.2745234375C0,30.1086234375,1.70685,31.8919234375,3.53917,31.8919234375L14.8666,31.8919234375L19.1208,36.1444234375L23.375,31.8919234375L34.705,31.8919234375C36.5391,31.8919234375,37.8154,30.1086234375,37.8154,28.2754234375L37.8154,24.5523234375L37.9185,24.4234234375L38.0302,5.2776434375C38.0302,3.4444634375,36.5391,1.8115234375,34.705,1.8115234375ZM11.3876,19.1430234375C10.1615,19.1430234375,9.16765,18.1491234375,9.16765,16.9230234375C9.16765,15.6970234375,10.1615,14.7031234375,11.3876,14.7031234375C12.6136,14.7031234375,13.6075,15.6970234375,13.6075,16.9230234375C13.6075,18.1491234375,12.6136,19.1430234375,11.3876,19.1430234375ZM19.1225,19.1430234375C17.8965,19.1430234375,16.9026,18.1491234375,16.9026,16.9230234375C16.9026,15.6970234375,17.8965,14.7031234375,19.1225,14.7031234375C20.3486,14.7031234375,21.3425,15.6970234375,21.3425,16.9230234375C21.3425,18.1491234375,20.3486,19.1430234375,19.1225,19.1430234375ZM26.8575,19.1430234375C25.6315,19.1430234375,24.6376,18.1491234375,24.6376,16.9230234375C24.6376,15.6970234375,25.6315,14.7031234375,26.8575,14.7031234375C28.0835,14.7031234375,29.0774,15.6970234375,29.0774,16.9230234375C29.0774,18.1491234375,28.0835,19.1430234375,26.8575,19.1430234375Z" fill="#06BE80" fill-opacity="1" style="mix-blend-mode:passthrough"/></g></g></svg>