<svg xmlns="http://www.w3.org/2000/svg" xmlns:xlink="http://www.w3.org/1999/xlink" fill="none" version="1.1" width="48" height="48" viewBox="0 0 48 48"><defs><clipPath id="master_svg0_422_20935"><rect x="0" y="0" width="48" height="48" rx="0"/></clipPath></defs><g clip-path="url(#master_svg0_422_20935)"><g><path d="M30.00005,24.051683984375C30.48285,23.770483984375,30.87185,22.964183984375,30.05625,22.579883984375C29.77965,22.453283984375,29.49375,22.336083984375,29.20785,22.223583984375C31.24215,20.400183984374998,32.53125,17.761083984375,32.53125,14.812643984375C32.53125,9.318893984375,28.07345,4.861083984375,22.57965,4.861083984375C17.08595,4.861083984375,12.62813,9.318893984375,12.62813,14.812643984375C12.62813,17.761083984375,13.91719,20.400183984374998,15.95155,22.223583984375C9.92344,24.590783984375,5.475,30.093883984375,4.6078125,36.726683984375C4.5984375,36.806383984375,4.59375,36.886083984375,4.59375,36.965783984375C4.59375,38.217383984375,5.60625,39.234483984375,6.8625,39.234483984375L25.73435,39.234483984375C24.86715,37.631383984375,24.37035,35.793883984375,24.37035,33.843883984375C24.37505,29.662683984375,26.63905,26.015783984375,30.00005,24.051683984375Z" fill="#FC457B" fill-opacity="1" style="mix-blend-mode:passthrough"/></g><g><path d="M35.704836484375,24.534423828125C30.576706484375002,24.534423828125,26.400146484375,28.706303828125,26.400146484375,33.839113828125C26.400146484375,38.967223828125,30.572026484375,43.143823828125,35.704836484375,43.143823828125C40.837646484375,43.143823828125,45.009546484375,38.971923828125,45.009546484375,33.839113828125C45.009546484375,28.710983828125002,40.837646484375,24.534423828125,35.704836484375,24.534423828125ZM41.550146484375,33.379733828125L39.543946484375,35.414123828125C39.459546484375,35.498523828125,39.398546484375004,35.643823828125,39.431346484375,35.756323828125L39.918946484375,38.681323828125C40.003246484375,39.084423828125,39.834546484375,39.454723828125,39.515746484375,39.684423828125C39.342346484375,39.796923828125,39.145446484375,39.857823828125,38.943946484375,39.857823828125C38.798546484375,39.857823828125,38.629846484375,39.829723828125,38.484546484375,39.745323828125L35.990766484375,38.371923828125C35.906396484375,38.315723828125,35.789206484375,38.315723828125,35.704836484375,38.371923828125L33.211086484375,39.745323828125C32.868896484375,39.918823828125,32.493896484375,39.890623828125,32.179836484375,39.689123828125C31.837646484375,39.459423828125,31.692336484374998,39.089123828125,31.748586484375,38.686023828125L32.236086484375,35.793823828125C32.264206484375,35.648523828125,32.236086484375,35.536023828124996,32.151706484375,35.451623828125L30.117336484375,33.389113828125C29.859526484375,33.103173828125,29.775146484375,32.700053828125,29.887646484375,32.329733828125C30.000146484375,31.987553828125,30.290776484375,31.729733828125,30.661086484374998,31.668803828125L33.440776484375,31.237543828125C33.553276484375,31.237543828125,33.642336484375,31.153173828125,33.698586484375,31.035983828124998L34.931396484375,28.401613828125C35.104836484375,28.031303828125,35.447026484375,27.829733828125,35.817336484375,27.829733828125C36.187646484375,27.829733828125,36.534546484375,28.059423828125,36.703246484375,28.401613828125L37.964246484374996,31.035983828124998C38.020446484375,31.148483828125002,38.109546484375,31.209423828125,38.222046484375,31.237543828125L41.001746484375,31.668803828125C41.343946484374996,31.696923828125,41.662646484375,31.954733828125,41.775146484375,32.329733828125C41.920446484375,32.690673828125,41.807946484375,33.093793828125,41.550146484375,33.379733828125Z" fill="#FC457B" fill-opacity="1" style="mix-blend-mode:passthrough"/></g></g></svg>