<svg xmlns="http://www.w3.org/2000/svg" xmlns:xlink="http://www.w3.org/1999/xlink" fill="none" version="1.1" width="41" height="41" viewBox="0 0 41 41"><defs><clipPath id="master_svg0_422_20808"><rect x="0" y="0" width="41" height="41" rx="0"/></clipPath></defs><g clip-path="url(#master_svg0_422_20808)"><g><path d="M31.0158,2.59396283125C30.3633,2.53066533125,29.7352,2.49658203125,29.151,2.49658203125C25.0853,2.49658203125,22.6751,3.9913820312499997,20.4938,6.28956203125C18.0155,3.66028203125,15.1817,2.08758203125,9.9718,2.59396283125C5.58966,3.02243803125,0.603761,6.87872203125,0,14.32348203125L0,16.757982031250002C0.486904,23.22408203125,5.01024,28.49728203125,17.845,37.65598203125C19.4265,38.78598203125,21.5513,38.78598203125,23.1328,37.65598203125C35.9774,28.47778203125,40.4812,23.20458203125,40.9827,16.73848203125L40.9827,14.30398203125C40.3838,6.87872203125,35.3979,3.02243803125,31.0158,2.59396283125Z" fill="#FC457B" fill-opacity="1" style="mix-blend-mode:passthrough"/></g></g></svg>