<svg xmlns="http://www.w3.org/2000/svg" xmlns:xlink="http://www.w3.org/1999/xlink" fill="none" version="1.1" width="48" height="48" viewBox="0 0 48 48"><defs><clipPath id="master_svg0_592_31911"><rect x="0" y="0" width="48" height="48" rx="0"/></clipPath></defs><g clip-path="url(#master_svg0_592_31911)"><g><path d="M24.5,3C36.3739,3,46,11.36062,46,21.6681C46,23.7856,45.5925,25.82,44.8433,27.7187C39.1999,43.4994,15.1543,45,15.1543,45C15.1543,45,17.6211,42.5369,18.5455,39.61C9.56786,37.37,3,30.1862,3,21.6681C3,11.36062,12.62615,3,24.5,3ZM15.9185,22.4917C15.9185,27.2259,19.766,31.0734,24.5001,31.0734C25.1572,31.0734,25.8143,31.0021,26.4555,30.8517C27.0968,30.7013,27.7143,30.4717,28.308,30.1788C28.3635,30.1551,28.411,30.1234,28.4505,30.0917C28.498,30.0521,28.5376,30.0205,28.5772,29.973C28.6089,29.9334,28.6405,29.8859,28.6722,29.8384C28.7039,29.7909,28.7197,29.7355,28.7435,29.688C28.7593,29.6326,28.7751,29.5771,28.7751,29.5217C28.783,29.4663,28.791,29.4109,28.783,29.3555C28.783,29.3001,28.7672,29.2446,28.7514,29.1892C28.7435,29.1338,28.7197,29.0784,28.696,29.0309C28.6722,28.9755,28.6405,28.928,28.6089,28.8884C28.5693,28.8409,28.5297,28.8013,28.4901,28.7617C28.4505,28.7301,28.403,28.6984,28.3555,28.6667C28.308,28.643,28.2526,28.6192,28.1972,28.5955C28.1497,28.5796,28.0943,28.5717,28.0389,28.5638C27.9835,28.5559,27.928,28.5559,27.8726,28.5559C27.8093,28.5559,27.7539,28.5717,27.7064,28.5876C27.651,28.5955,27.5955,28.6192,27.548,28.643C26.598,29.118,25.5689,29.3555,24.5001,29.3555C20.716,29.3555,17.636400000000002,26.2759,17.636400000000002,22.4917C17.636400000000002,18.7155,20.716,15.6359,24.5001,15.6359C28.2764,15.6359,31.356,18.7155,31.356,22.4917C31.356,23.3596,31.1995,24.1977,30.8865,25.006C30.8759,25.0245,30.8659,25.044,30.8571,25.0647C30.4692,25.9672,29.8754,26.2917,29.4796,26.2126C29.1233,26.1413,29.0679,25.7613,29.0679,25.5397L29.0679,22.5291C29.068,22.5167,29.0681,22.5042,29.0681,22.4917Q29.0681,22.4726,29.0679,22.4534L29.0679,18.7788C29.0679,18.723399999999998,29.0679,18.668,29.0521,18.6126C29.0442,18.5572,29.0283,18.5017,29.0046,18.4542C28.9808,18.3988,28.9571,18.351300000000002,28.9254,18.303800000000003C28.8937,18.2563,28.8621,18.2088,28.8225,18.1692C28.7829,18.1297,28.7354,18.098,28.6879,18.0663C28.6404,18.0347,28.5929,18.0109,28.5375,17.9872C28.49,17.9634,28.4346,17.9476,28.3792,17.939700000000002C28.3237,17.9238,28.2683,17.9238,28.2129,17.9238C28.1575,17.9238,28.1021,17.9238,28.0467,17.939700000000002C27.9894,17.9481,27.9335,17.964100000000002,27.8804,17.9872C27.8329,18.0109,27.7854,18.0347,27.7379,18.0663C27.6904,18.098,27.6429,18.1297,27.6033,18.1692C27.5637,18.2088,27.5321,18.2563,27.5004,18.303800000000003C27.4687,18.351300000000002,27.445,18.3988,27.4212,18.4542C27.3975,18.5017,27.3817,18.5572,27.3737,18.6126C27.3579,18.668,27.3579,18.723399999999998,27.3579,18.7788L27.3579,18.9314C26.5747,18.3014,25.5805,17.9238,24.5002,17.9238C21.9747,17.9238,19.9243,19.9742,19.9243,22.4917C19.9243,25.0172,21.9747,27.0676,24.5002,27.0676C24.6426,27.0676,24.7931,27.0597,24.9435,27.0438C25.0939,27.0359,25.2443,27.0122,25.3868,26.9805C25.5372,26.9488,25.6797,26.9172,25.8222,26.8697C25.9647,26.8301,26.1072,26.7826,26.2497,26.7192C26.5266,26.6053,26.7917,26.4648,27.0414,26.2997C27.1602,26.2126,27.2789,26.1255,27.3976,26.0305L27.3998,26.0288C27.5668,26.9816,28.2207,27.7075,29.1312,27.8909C29.2817,27.9226,29.4321,27.9384,29.5904,27.9384C30.5863,27.9384,31.7453,27.3093,32.4135,25.7894C32.424499999999995,25.7694,32.4339,25.7495,32.4405,25.7296C32.8601,24.7005,33.073899999999995,23.6159,33.073899999999995,22.4917C33.073899999999995,17.7655,29.2264,13.918,24.5001,13.918C19.766,13.918,15.9185,17.7655,15.9185,22.4917ZM27.3579,22.5153L27.3579,22.4614C27.3416,20.8999,26.0655,19.6338,24.5002,19.6338C22.9168,19.6338,21.6343,20.9163,21.6343,22.4917C21.6343,24.0751,22.9168,25.3576,24.5002,25.3576C24.5872,25.3576,24.6822,25.3497,24.7772,25.3417C24.8722,25.3338,24.9593,25.318,25.0543,25.3022C25.1493,25.2784,25.2364,25.2547,25.3235,25.2309C25.4185,25.2072,25.5056,25.1755,25.5927,25.1359C25.6797,25.1042,25.7589,25.0647,25.846,25.0172L26.0835,24.8747C26.1627,24.8192,26.2339,24.7638,26.3131,24.7084C26.3843,24.6451,26.4477,24.5817,26.5189,24.5184C26.5822,24.4472,26.6456,24.3838,26.7089,24.3126C26.7643,24.2334,26.8197,24.1622,26.8752,24.083L27.0177,23.8455C27.0652,23.7584,27.1047,23.6792,27.1364,23.5922C27.176,23.5051,27.2076,23.418,27.2314,23.323C27.2631,23.2359,27.2789,23.1488,27.3027,23.0538C27.3185,22.9588,27.3343,22.8717,27.3422,22.7767C27.3495,22.6896,27.3568,22.6025,27.3579,22.5153Z" fill-rule="evenodd" fill="#FF7D2C" fill-opacity="1" style="mix-blend-mode:passthrough"/></g></g></svg>