<svg xmlns="http://www.w3.org/2000/svg" xmlns:xlink="http://www.w3.org/1999/xlink" fill="none" version="1.1" width="40" height="40" viewBox="0 0 40 40"><defs><clipPath id="master_svg0_422_20730"><rect x="0" y="0" width="40" height="40" rx="0"/></clipPath></defs><g clip-path="url(#master_svg0_422_20730)"><g><path d="M37.73150390625,21.9607L23.57900390625,34.4799C22.37650390625,35.6282,20.41900390625,34.7499,20.41900390625,33.0599L20.41900390625,26.7532C19.94040390625,26.7181,19.46060390625,26.7,18.98070390625,26.6991C12.49730390625,26.6991,6.84900390625,29.7341,3.88067390625,34.234899999999996C3.26900390625,35.1541,1.88317290625,34.803200000000004,1.76484010625,33.6941C1.69899460625,33.0927,1.66616745025,32.4882,1.66650657654,31.8832C1.66650657654,22.4416,9.80484390625,14.62739,20.42570390625,13.24906L20.42570390625,6.93989C20.42570390625,5.249891,22.38400390625,4.371558,23.58570390625,5.519891L37.73820390625,19.1291C38.53230390625,19.8857,38.53230390625,21.1974,37.73150390625,21.9607Z" fill="#1C70FE" fill-opacity="1" style="mix-blend-mode:passthrough"/></g></g></svg>