<svg xmlns="http://www.w3.org/2000/svg" xmlns:xlink="http://www.w3.org/1999/xlink" fill="none" version="1.1" width="38" height="38" viewBox="0 0 38 38"><defs><clipPath id="master_svg0_422_20644"><rect x="0" y="0" width="38" height="38" rx="0"/></clipPath></defs><g clip-path="url(#master_svg0_422_20644)"><g><path d="M20.1875,20.7811609375L20.1875,34.7713609375C20.1875,34.9346609375,20.0539,35.0682609375,19.8906,35.0682609375L18.1094,35.0682609375C17.9461,35.0682609375,17.8125,34.9346609375,17.8125,34.7713609375L17.8125,20.7811609375L2.375,20.7811609375L2.375,35.0682609375C2.375,36.3782609375,3.44004,37.4432609375,4.75,37.4432609375L33.25,37.4432609375C34.5637,37.4432609375,35.625,36.3782609375,35.625,35.0682609375L35.625,20.7811609375L20.1875,20.7811609375ZM33.25,7.7557809375L31.6914,7.7557809375C31.4539,7.7557809375,31.3129,7.4885909375,31.4465,7.2919109375C32.0254,6.4309709375,32.3074,5.4846809375,32.248,4.5458209375C32.1775,3.4251109375,31.6135,2.4528509375,30.6227,1.7329209375C29.9102,1.2171049375,28.9639,0.8423009375,27.9619,0.6715975375C26.1436,0.36730093750000004,24.2176,0.8831209375,22.5328,2.1300009375C21.6273,2.8016709375,20.8035,3.6589009375,20.0688,4.6979609375C19.5975,5.3622209375,18.6066,5.3622209375,18.1354,4.6979609375C17.4006,3.6589009375,16.5768,2.7979609375,15.6713,2.1300009375C13.9902,0.8831209375,12.0643,0.3635899375,10.2459,0.6715975375C9.24395,0.8423009375,8.29766,1.2171049375,7.58516,1.7329209375C6.59434,2.4491409375,6.03027,3.4214009375,5.95977,4.5458209375C5.90039,5.4846809375,6.17871,6.4309709375,6.76133,7.2919109375C6.89492,7.4885909375,6.75762,7.7557809375,6.51641,7.7557809375L4.75,7.7557809375C2.12637,7.7557809375,0,9.8821409375,0,12.5057609375L0,17.2557609375C0,17.8086609375,0.378516,18.2762609375,0.890625,18.4061609375L37.1094,18.4061609375C37.6215,18.2762609375,38,17.8086609375,38,17.2557609375L38,12.5057609375C38,9.8821409375,35.8736,7.7557809375,33.25,7.7557809375ZM21.2303,7.3141809375C23.2045,3.7331209375,25.7057,2.6977709375,27.5648,3.0132009375C27.7912,3.0503109375,29.7914,3.4251109375,29.8768,4.6979609375C29.9473,5.8075309375,28.7227,7.2770709375,26.6111,7.7557809375L21.49,7.7557809375C21.2637,7.7557809375,21.1227,7.5145709375,21.2303,7.3141809375ZM8.32734,4.6979609375C8.40898,3.4251109375,10.4092,3.0540209375,10.6393,3.0132009375C12.5021,2.7014809375,15.0033,3.7331209375,16.9738,7.3141809375C17.0852,7.5108509375,16.9404,7.7557809375,16.7141,7.7557809375L11.593,7.7557809375C9.48516,7.2733609375,8.25684,5.8075309375,8.32734,4.6979609375Z" fill="#FC457B" fill-opacity="1" style="mix-blend-mode:passthrough"/></g></g></svg>